<svg width="147" height="36" viewBox="0 0 147 36" fill="none" xmlns="http://www.w3.org/2000/svg">
<g clip-path="url(#clip0_40000087_14537)">
<path d="M19.2068 23.5443H28.4321C27.5247 25.3671 26.0123 26.8861 24.1975 27.9494C22.3827 29.0127 20.4167 29.6203 18.4506 29.6203C16.787 29.6203 15.1235 29.3165 13.6111 28.557C12.0988 27.9494 10.7377 26.8861 9.52778 25.6709C9.07407 25.2152 8.62037 24.6076 8.16667 24C7.71296 23.3924 7.41049 22.7848 7.10802 22.0253C6.80556 21.2658 6.65432 20.6582 6.50309 19.8987C6.35185 19.1392 6.35185 18.5316 6.35185 17.7722C6.35185 16.2532 6.65432 14.5823 7.41049 13.0633C8.16667 11.5443 9.07407 10.1772 10.284 9.11392C11.3426 8.20253 12.5525 7.44304 13.9136 6.83544C15.2747 6.37975 16.6358 6.07595 18.1481 6.07595C19.8117 6.07595 21.6265 6.53165 23.1389 7.29114C23.4414 7.44304 23.8951 7.74683 24.1975 7.89873L26.1636 1.82278C23.5926 0.607595 21.0216 0 18.1481 0C13.1574 0 8.92284 1.82278 5.29321 5.31646C1.66358 8.81013 0 13.0633 0 18.0759C0 23.0886 1.81481 27.3418 5.44444 30.8354C9.07407 34.1772 13.3086 36 18.2994 36C23.2901 36 27.5247 34.3291 31.0031 30.9873C34.6327 27.4937 36.4475 23.3924 36.4475 18.3797V17.6203H21.1728L19.2068 23.5443Z" fill="#0F172A"/>
<path d="M56.5616 0.151855C51.5709 0.151855 47.4876 1.97464 44.0092 5.46831C40.5308 8.96198 38.8672 13.2151 38.8672 18.2278C38.8672 23.2405 40.682 27.3417 44.1604 30.8354C47.6388 34.3291 51.8734 36 56.7129 36C61.5524 36 65.7869 34.3291 69.2653 30.8354C72.7437 27.3417 74.5585 23.0886 74.5585 18.2278C74.5585 13.2151 72.895 8.96198 69.4166 5.46831C65.9382 1.97464 61.5524 0.151855 56.5616 0.151855ZM64.5771 26.2784C62.3085 28.5569 59.5863 29.7721 56.5616 29.7721C53.3857 29.7721 50.8147 28.5569 48.5462 26.2784C46.2777 24 45.219 21.1139 45.219 18.0759C45.219 14.886 46.2777 12.1519 48.5462 9.87337C50.8147 7.59489 53.5369 6.5316 56.7129 6.5316C59.8888 6.5316 62.611 7.59489 64.8795 9.87337C67.1481 12.1519 68.2067 14.886 68.2067 18.0759C68.0555 21.1139 66.8456 24 64.5771 26.2784Z" fill="#0F172A"/>
<path d="M85.75 0.911621H79.3982V35.0888H96.1852V29.0129H85.75V0.911621Z" fill="#0F172A"/>
<path d="M99.6636 35.0888H106.015V21.1142H116.602V14.8863H106.015V6.98757H117.056V0.911621H99.6636V35.0888Z" fill="#0F172A"/>
<path d="M118.87 0.911621L130.062 22.4812V35.0888H136.414V22.0255L125.827 0.911621H118.87Z" fill="#0F172A"/>
<path d="M137.926 18.5319C134.901 12.4559 132.028 6.83567 129.154 0.911621C135.204 0.911621 140.951 0.911621 147 0.911621C143.975 6.68377 141.102 12.4559 137.926 18.5319Z" fill="#EA2127"/>
</g>
<defs>
<clipPath id="clip0_40000087_14537">
<rect width="147" height="36" fill="white"/>
</clipPath>
</defs>
</svg>
