<?xml version="1.0" encoding="utf-8"?>
<!-- Generator: Adobe Illustrator 25.2.0, SVG Export Plug-In . SVG Version: 6.00 Build 0)  -->
<svg version="1.1" id="Layer_1" xmlns="http://www.w3.org/2000/svg" xmlns:xlink="http://www.w3.org/1999/xlink" x="0px" y="0px"
	 viewBox="0 0 117 117" style="enable-background:new 0 0 117 117;" xml:space="preserve">
<style type="text/css">
	.st0{fill:none;}
	.st1{fill:url(#SVGID_1_);}
	.st2{fill:#FFFFFF;}
	.st3{fill:#EA2127;}
</style>
<rect y="0" class="st0" width="117" height="117"/>
<linearGradient id="SVGID_1_" gradientUnits="userSpaceOnUse" x1="58.5" y1="117" x2="58.5" y2="6.608589e-07">
	<stop  offset="0" style="stop-color:#006837;stop-opacity:0.9232"/>
	<stop  offset="0.2689" style="stop-color:#076D36;stop-opacity:0.9304"/>
	<stop  offset="0.6628" style="stop-color:#1B7B34;stop-opacity:0.9409"/>
	<stop  offset="1" style="stop-color:#318A32;stop-opacity:0.95"/>
</linearGradient>
<path class="st1" d="M93.4,0H23.6C10.5,0,0,10.5,0,23.6v69.9c0,13,10.5,23.6,23.6,23.6h69.9c13,0,23.6-10.5,23.6-23.6V23.6
	C117,10.5,106.5,0,93.4,0z"/>
<g>
	<g>
		<path class="st2" d="M22.6,62.1h6.1c-0.6,1.2-1.6,2.2-2.8,2.9s-2.5,1.1-3.8,1.1c-1.1,0-2.2-0.2-3.2-0.7c-1-0.4-1.9-1.1-2.7-1.9
			c-0.3-0.3-0.6-0.7-0.9-1.1c-0.3-0.4-0.5-0.8-0.7-1.3c-0.2-0.5-0.3-0.9-0.4-1.4c-0.1-0.5-0.1-0.9-0.1-1.4c0-1,0.2-2.1,0.7-3.1
			c0.5-1,1.1-1.9,1.9-2.6c0.7-0.6,1.5-1.1,2.4-1.5c0.9-0.3,1.8-0.5,2.8-0.5c1.1,0,2.3,0.3,3.3,0.8c0.2,0.1,0.5,0.3,0.7,0.4l1.3-4
			c-1.7-0.8-3.4-1.2-5.3-1.2c-3.3,0-6.1,1.2-8.5,3.5s-3.5,5.1-3.5,8.4c0,3.3,1.2,6.1,3.6,8.4c2.4,2.2,5.2,3.4,8.5,3.4
			s6.1-1.1,8.4-3.3c2.4-2.3,3.6-5,3.6-8.3v-0.5H23.9L22.6,62.1z"/>
		<path class="st2" d="M47.3,46.7c-3.3,0-6,1.2-8.3,3.5c-2.3,2.3-3.4,5.1-3.4,8.4c0,3.3,1.2,6,3.5,8.3c2.3,2.3,5.1,3.4,8.3,3.4
			c3.2,0,6-1.1,8.3-3.4s3.5-5.1,3.5-8.3c0-3.3-1.1-6.1-3.4-8.4S50.6,46.7,47.3,46.7z M52.6,63.9c-1.5,1.5-3.3,2.3-5.3,2.3
			c-2.1,0-3.8-0.8-5.3-2.3c-1.5-1.5-2.2-3.4-2.2-5.4c0-2.1,0.7-3.9,2.2-5.4c1.5-1.5,3.3-2.2,5.4-2.2c2.1,0,3.9,0.7,5.4,2.2
			c1.5,1.5,2.2,3.3,2.2,5.4C54.9,60.5,54.1,62.4,52.6,63.9z"/>
		<polygon class="st2" points="66.6,47.2 62.4,47.2 62.4,69.7 73.5,69.7 73.5,65.7 66.6,65.7 		"/>
		<polygon class="st2" points="75.8,69.7 80,69.7 80,60.5 87,60.5 87,56.4 80,56.4 80,51.2 87.3,51.2 87.3,47.2 75.8,47.2 		"/>
		<polygon class="st2" points="88.5,47.2 95.9,61.4 95.9,69.7 100.1,69.7 100.1,61.1 93.1,47.2 		"/>
	</g>
	<path class="st3" d="M101.1,58.8c-2-4-3.9-7.7-5.8-11.6c4,0,7.8,0,11.8,0C105.1,51,103.2,54.8,101.1,58.8z"/>
</g>
</svg>
